<?xml version="1.0" encoding="utf-8"?>
<!-- Generator: Adobe Illustrator 20.1.0, SVG Export Plug-In . SVG Version: 6.00 Build 0)  -->
<svg version="1.1" id="Layer_1" xmlns="http://www.w3.org/2000/svg" xmlns:xlink="http://www.w3.org/1999/xlink" x="0px" y="0px"
	 viewBox="0 0 90 90" style="enable-background:new 0 0 90 90;" xml:space="preserve">
<g>
	<path d="M49.5,56.9c0-2-0.5-3.4-1.5-4.4c-1-1-2.8-2-5.4-3.1c-4.8-1.8-8.3-4-10.4-6.4c-2.1-2.4-3.2-5.3-3.2-8.7c0-4,1.4-7.3,4.3-9.7
		s6.5-3.7,10.9-3.7c2.9,0,5.6,0.6,7.9,1.9c2.3,1.2,4.1,3,5.3,5.3c1.2,2.3,1.9,4.8,1.9,7.7h-9.6c0-2.2-0.5-3.9-1.4-5.1
		c-1-1.2-2.3-1.8-4.1-1.8c-1.7,0-3,0.5-4,1.5s-1.4,2.3-1.4,4c0,1.3,0.5,2.5,1.6,3.6c1.1,1.1,2.9,2.2,5.6,3.3
		c4.7,1.7,8.1,3.8,10.2,6.2c2.1,2.5,3.2,5.6,3.2,9.4c0,4.2-1.3,7.4-4,9.8s-6.3,3.5-10.8,3.5c-3.1,0-5.9-0.6-8.5-1.9
		c-2.5-1.3-4.5-3.1-6-5.5c-1.4-2.4-2.2-5.2-2.2-8.4h9.7c0,2.8,0.5,4.8,1.6,6c1.1,1.3,2.8,1.9,5.3,1.9C47.9,62.3,49.5,60.5,49.5,56.9
		z"/>
</g>
</svg>
