<?xml version="1.0" encoding="utf-8"?>
<!-- Generator: Adobe Illustrator 20.1.0, SVG Export Plug-In . SVG Version: 6.00 Build 0)  -->
<svg version="1.1" id="Layer_1" xmlns="http://www.w3.org/2000/svg" xmlns:xlink="http://www.w3.org/1999/xlink" x="0px" y="0px"
	 viewBox="0 0 90 90" style="enable-background:new 0 0 90 90;" xml:space="preserve">
<g>
	<path d="M63,48.9c0,6.7-1.2,11.7-3.6,15.3c-2.4,3.5-5.9,5.3-10.3,5.3s-7.8-1.7-10.3-5.1c-2.4-3.4-3.7-8.3-3.8-14.7v-9.1
		c0-6.6,1.2-11.7,3.6-15.2C41,21.8,44.5,20,49,20s7.9,1.7,10.3,5.2S63,33.7,63,40.1V48.9z M53.6,39.1c0-3.8-0.4-6.6-1.1-8.5
		c-0.7-1.9-1.9-2.8-3.5-2.8c-3,0-4.5,3.5-4.6,10.4v12c0,3.9,0.4,6.8,1.1,8.7c0.8,1.9,1.9,2.8,3.6,2.8c1.5,0,2.6-0.9,3.4-2.7
		s1.1-4.5,1.2-8.1V39.1H53.6z"/>
</g>
<g>
	<path d="M25.9,45.1c0-1.1-0.2-1.9-0.7-2.5C24.8,42,24,41.4,23,40.9c-2-0.9-3.4-1.7-4.4-2.5c-0.9-0.8-1.6-1.7-2.1-2.8
		c-0.5-1-0.7-2.3-0.7-3.7c0-2.1,0.6-3.9,1.8-5.3s2.7-2.2,4.7-2.5V20h2.9v4.2c1.9,0.4,3.4,1.3,4.5,2.9s1.6,3.6,1.6,6h-5.5
		c0-1.5-0.2-2.7-0.7-3.5c-0.4-0.8-1-1.1-1.7-1.1s-1.2,0.3-1.6,0.9s-0.6,1.4-0.6,2.5c0,0.9,0.2,1.7,0.6,2.3s1.2,1.2,2.3,1.9
		c2.1,1,3.5,1.9,4.4,2.7s1.6,1.7,2,2.7s0.7,2.2,0.7,3.6c0,2.2-0.6,3.9-1.7,5.3c-1.2,1.4-2.7,2.2-4.8,2.4v3.8H22v-3.8
		c-2.2-0.3-3.9-1.3-5.1-2.8c-1.2-1.6-1.8-3.7-1.8-6.3h5.5c0,1.5,0.2,2.7,0.7,3.5s1.2,1.2,2.2,1.2c0.8,0,1.4-0.3,1.8-0.9
		C25.7,47,25.9,46.1,25.9,45.1z"/>
</g>
</svg>
